<mxfile host="app.diagrams.net" modified="2024-01-22T08:51:39.385Z" agent="Mozilla/5.0 (Macintosh; Intel Mac OS X 10_15_7) AppleWebKit/537.36 (KHTML, like Gecko) Chrome/120.0.0.0 Safari/537.36" etag="dPBiHK6gr5FBnxJXL3b8" version="22.1.21" type="github">
  <diagram name="페이지-1" id="0SzFmMWZYV7zlz8DxXg8">
    <mxGraphModel dx="2385" dy="1600" grid="1" gridSize="10" guides="1" tooltips="1" connect="1" arrows="1" fold="1" page="1" pageScale="1" pageWidth="827" pageHeight="1169" math="0" shadow="0">
      <root>
        <mxCell id="0" />
        <mxCell id="1" parent="0" />
        <mxCell id="IRv5pfy5tKpg7ezLrgNY-10" value="" style="rounded=0;whiteSpace=wrap;html=1;" vertex="1" parent="1">
          <mxGeometry x="600" y="30" width="780" height="1110" as="geometry" />
        </mxCell>
        <mxCell id="IRv5pfy5tKpg7ezLrgNY-3" value="&lt;font style=&quot;font-size: 36px;&quot;&gt;일정 작성&amp;nbsp;&lt;/font&gt;" style="ellipse;whiteSpace=wrap;html=1;" vertex="1" parent="1">
          <mxGeometry x="750" y="130" width="260" height="160" as="geometry" />
        </mxCell>
        <mxCell id="IRv5pfy5tKpg7ezLrgNY-4" value="&lt;font style=&quot;font-size: 36px;&quot;&gt;선택한 일정 조회&lt;/font&gt;" style="ellipse;whiteSpace=wrap;html=1;" vertex="1" parent="1">
          <mxGeometry x="760" y="310" width="260" height="160" as="geometry" />
        </mxCell>
        <mxCell id="IRv5pfy5tKpg7ezLrgNY-5" value="&lt;font style=&quot;font-size: 36px;&quot;&gt;일정 목록 조회&lt;/font&gt;" style="ellipse;whiteSpace=wrap;html=1;" vertex="1" parent="1">
          <mxGeometry x="750" y="490" width="260" height="160" as="geometry" />
        </mxCell>
        <mxCell id="IRv5pfy5tKpg7ezLrgNY-6" value="&lt;font style=&quot;font-size: 36px;&quot;&gt;선택한 일정 수정&lt;/font&gt;" style="ellipse;whiteSpace=wrap;html=1;" vertex="1" parent="1">
          <mxGeometry x="750" y="670" width="260" height="160" as="geometry" />
        </mxCell>
        <mxCell id="IRv5pfy5tKpg7ezLrgNY-7" value="&lt;font style=&quot;font-size: 36px;&quot;&gt;선택한 일정 삭제&lt;/font&gt;" style="ellipse;whiteSpace=wrap;html=1;" vertex="1" parent="1">
          <mxGeometry x="750" y="860" width="260" height="160" as="geometry" />
        </mxCell>
        <mxCell id="IRv5pfy5tKpg7ezLrgNY-8" value="&lt;font style=&quot;font-size: 48px;&quot;&gt;사용자&lt;/font&gt;" style="shape=umlActor;verticalLabelPosition=bottom;verticalAlign=top;html=1;outlineConnect=0;" vertex="1" parent="1">
          <mxGeometry x="100" y="230" width="310" height="550" as="geometry" />
        </mxCell>
        <mxCell id="IRv5pfy5tKpg7ezLrgNY-9" value="&lt;font style=&quot;font-size: 36px;&quot;&gt;비밀번호 확인&lt;/font&gt;" style="ellipse;whiteSpace=wrap;html=1;" vertex="1" parent="1">
          <mxGeometry x="1120" y="790" width="250" height="160" as="geometry" />
        </mxCell>
        <mxCell id="IRv5pfy5tKpg7ezLrgNY-14" value="" style="endArrow=classic;html=1;rounded=0;exitX=1;exitY=0.3333333333333333;exitDx=0;exitDy=0;exitPerimeter=0;" edge="1" parent="1" source="IRv5pfy5tKpg7ezLrgNY-8" target="IRv5pfy5tKpg7ezLrgNY-3">
          <mxGeometry width="50" height="50" relative="1" as="geometry">
            <mxPoint x="410" y="410" as="sourcePoint" />
            <mxPoint x="770" y="320" as="targetPoint" />
          </mxGeometry>
        </mxCell>
        <mxCell id="IRv5pfy5tKpg7ezLrgNY-15" value="" style="endArrow=classic;html=1;rounded=0;exitX=1;exitY=0.3333333333333333;exitDx=0;exitDy=0;exitPerimeter=0;" edge="1" parent="1" source="IRv5pfy5tKpg7ezLrgNY-8" target="IRv5pfy5tKpg7ezLrgNY-4">
          <mxGeometry width="50" height="50" relative="1" as="geometry">
            <mxPoint x="420" y="442" as="sourcePoint" />
            <mxPoint x="787" y="269" as="targetPoint" />
          </mxGeometry>
        </mxCell>
        <mxCell id="IRv5pfy5tKpg7ezLrgNY-16" value="" style="endArrow=classic;html=1;rounded=0;entryX=0;entryY=0.5;entryDx=0;entryDy=0;exitX=1;exitY=0.3333333333333333;exitDx=0;exitDy=0;exitPerimeter=0;" edge="1" parent="1" source="IRv5pfy5tKpg7ezLrgNY-8" target="IRv5pfy5tKpg7ezLrgNY-5">
          <mxGeometry width="50" height="50" relative="1" as="geometry">
            <mxPoint x="430" y="452" as="sourcePoint" />
            <mxPoint x="771" y="472" as="targetPoint" />
          </mxGeometry>
        </mxCell>
        <mxCell id="IRv5pfy5tKpg7ezLrgNY-17" value="" style="endArrow=classic;html=1;rounded=0;fontStyle=1;entryX=0;entryY=0.5;entryDx=0;entryDy=0;exitX=1;exitY=0.3333333333333333;exitDx=0;exitDy=0;exitPerimeter=0;" edge="1" parent="1" source="IRv5pfy5tKpg7ezLrgNY-8" target="IRv5pfy5tKpg7ezLrgNY-6">
          <mxGeometry width="50" height="50" relative="1" as="geometry">
            <mxPoint x="420" y="410" as="sourcePoint" />
            <mxPoint x="781" y="482" as="targetPoint" />
          </mxGeometry>
        </mxCell>
        <mxCell id="IRv5pfy5tKpg7ezLrgNY-18" value="" style="endArrow=classic;html=1;rounded=0;fontStyle=1;entryX=0;entryY=0.5;entryDx=0;entryDy=0;exitX=1;exitY=0.3333333333333333;exitDx=0;exitDy=0;exitPerimeter=0;" edge="1" parent="1" source="IRv5pfy5tKpg7ezLrgNY-8" target="IRv5pfy5tKpg7ezLrgNY-7">
          <mxGeometry width="50" height="50" relative="1" as="geometry">
            <mxPoint x="410" y="410" as="sourcePoint" />
            <mxPoint x="760" y="760" as="targetPoint" />
          </mxGeometry>
        </mxCell>
      </root>
    </mxGraphModel>
  </diagram>
</mxfile>
